<svg version="1.1" id="Layer_1" xmlns="http://www.w3.org/2000/svg" xmlns:xlink="http://www.w3.org/1999/xlink" x="0px" y="0px"
	 width="100%" viewBox="0 0 304 304" enable-background="new 0 0 304 304" xml:space="preserve">
<rect x="10" y="10" width="290" height="290" fill="white"/>
<path fill="#000000" opacity="1.000000" stroke="none" 
	d="
M174.000000,305.000000 
	C116.000008,305.000000 58.500019,305.000000 1.000023,305.000000 
	C1.000015,203.666702 1.000015,102.333389 1.000008,1.000064 
	C102.333282,1.000043 203.666565,1.000043 304.999878,1.000021 
	C304.999939,102.333275 304.999939,203.666550 304.999969,304.999908 
	C261.500000,305.000000 218.000000,305.000000 174.000000,305.000000 
M168.360626,197.146057 
	C181.975067,209.374542 195.216309,221.996887 208.131042,234.959930 
	C209.472900,236.306808 211.686325,237.430588 211.066086,239.807388 
	C210.436295,242.220749 211.727310,243.583023 213.156754,245.014923 
	C222.338516,254.212479 231.429718,263.503448 240.752548,272.555756 
	C244.644775,276.335052 249.437531,278.577972 255.073303,278.630249 
	C269.528320,278.764374 280.500458,272.461365 287.325348,259.941010 
	C293.814148,248.037170 294.449280,235.960953 282.912445,226.097427 
	C271.304169,216.172821 263.127869,202.507385 248.699951,195.554764 
	C244.538162,193.549240 241.313873,189.424408 237.932190,186.002014 
	C215.819336,163.622971 192.905518,142.074265 170.238403,120.266708 
	C153.790939,104.442978 137.855988,88.085144 121.769508,71.888985 
	C119.251816,69.354126 116.497810,67.458778 113.173943,66.143585 
	C93.411209,58.323837 73.680122,50.423801 53.961647,42.492931 
	C51.650421,41.563347 49.351894,40.889591 47.485977,42.901962 
	C45.406345,45.144833 46.640163,47.432652 47.846077,49.767578 
	C52.481621,58.743069 57.103916,67.745224 61.767498,76.685074 
	C68.480621,89.553749 73.148323,103.244843 84.646751,113.983147 
	C113.204483,140.653015 140.216904,168.977570 168.360626,197.146057 
M177.862045,112.607872 
	C183.075241,117.737427 188.418900,122.725166 193.766098,127.715569 
	C206.777313,139.858627 219.375854,152.444778 232.097519,164.896469 
	C235.329971,168.060318 238.848724,170.044800 243.619370,169.682907 
	C247.759155,169.368866 251.944717,169.715363 256.104645,169.590164 
	C259.101959,169.499954 261.384155,170.107819 263.371613,172.789810 
	C265.217072,175.280197 268.035065,177.056931 271.318726,177.538055 
	C278.698486,178.619354 284.419250,175.410812 286.913025,168.860382 
	C289.101501,163.111801 287.046265,155.945328 282.301239,152.779404 
	C276.381409,148.829636 268.748505,149.640244 263.647064,154.851364 
	C262.721710,155.796585 262.051880,156.873306 260.616760,157.260132 
	C249.342102,160.299179 234.782654,153.758636 228.706238,142.034882 
	C231.189850,139.891541 234.176819,137.711395 236.658463,135.058548 
	C239.061462,132.489777 241.113922,132.054733 244.433319,133.578857 
	C254.865509,138.368881 265.541199,138.028320 275.727264,132.999191 
	C290.786133,125.564224 296.780273,112.691650 296.652649,96.351112 
	C296.460785,71.779716 270.957001,53.951424 247.893311,62.115158 
	C227.110031,69.471703 214.936401,96.056145 226.244919,115.975876 
	C228.740936,120.372559 227.701813,123.398369 224.611832,126.514519 
	C223.673752,127.460556 222.636932,128.326355 221.807114,129.358902 
	C218.963028,132.897797 216.504547,132.748123 213.224670,129.491089 
	C200.831375,117.184105 188.865753,104.450684 175.841339,92.760361 
	C171.517456,88.879379 167.857513,88.203140 162.948624,90.621971 
	C159.677979,92.233559 159.116196,93.923836 161.827682,96.585403 
	C167.056900,101.718338 172.197327,106.941719 177.862045,112.607872 
M132.784653,191.381363 
	C128.587387,194.886398 123.898430,197.829163 120.268456,201.978699 
	C117.918999,204.664413 115.983162,204.269547 113.667480,201.895432 
	C111.246071,199.412949 108.920891,196.850555 105.894516,194.937958 
	C90.499062,185.208435 68.925560,189.733734 58.462460,201.473923 
	C47.698433,213.551773 44.897812,232.370453 53.309998,246.267303 
	C62.214333,260.977173 79.207253,267.686157 95.303741,262.846802 
	C113.705330,257.314484 124.634056,240.436890 122.392883,220.592148 
	C122.131874,218.281097 122.430450,216.964294 124.222656,215.560364 
	C131.273956,210.036636 138.199142,204.352188 145.225204,198.795746 
	C146.463440,197.816528 147.616806,197.015656 147.138168,195.176331 
	C145.478745,188.799423 137.973434,186.469574 132.784653,191.381363 
M201.581696,76.715919 
	C202.619720,77.242195 203.731125,77.661308 204.683197,78.313141 
	C209.002686,81.270477 211.408081,79.358208 213.748489,75.410263 
	C216.451340,70.850906 213.593018,69.143272 210.423828,67.317734 
	C209.272568,66.654564 208.051285,66.113846 206.890976,65.465332 
	C199.958435,61.590664 192.447342,59.079735 183.931259,56.423759 
	C188.956833,50.722717 193.634674,45.692547 193.646408,38.322269 
	C193.658218,30.893797 191.045380,24.637785 185.489243,19.797224 
	C177.877747,13.165999 164.416229,12.395221 156.430908,19.542843 
	C143.002853,31.562202 145.970703,44.471458 157.311478,56.715630 
	C148.279861,59.055862 140.126450,61.402775 133.090637,66.546402 
	C138.341370,74.571648 141.755005,75.770607 149.644638,73.119400 
	C167.158203,67.234184 184.240005,68.591705 201.581696,76.715919 
M188.831009,256.623566 
	C186.564087,251.925201 180.690933,251.202179 177.363403,246.639359 
	C183.231445,243.049408 190.122955,244.280289 195.577179,240.964218 
	C192.014847,235.130417 187.890732,231.497391 180.255798,232.192795 
	C172.878143,232.864761 165.339539,232.887451 157.866760,231.528305 
	C151.584915,230.385803 145.654022,228.352310 139.848022,225.898712 
	C134.510590,223.643127 134.241913,228.533417 132.406555,230.983292 
	C130.291916,233.805908 132.643066,235.213943 134.790970,236.282700 
	C138.805054,238.279953 142.727585,240.482010 147.114487,241.669449 
	C152.461685,243.116837 157.767258,244.718063 163.067642,246.246078 
	C162.629181,249.328476 160.464127,249.651962 158.736588,250.490494 
	C147.118332,256.129761 143.307678,274.796021 151.770874,284.587952 
	C160.621719,294.828369 174.542648,296.730530 184.879974,288.818115 
	C193.311279,282.364624 197.824249,268.948608 188.831009,256.623566 
M66.713081,178.487961 
	C71.205200,177.821640 75.724838,176.918472 78.416405,172.855576 
	C80.144897,170.246429 82.260185,169.577484 85.130341,169.599716 
	C95.284630,169.678406 105.440208,169.652908 115.594711,169.581635 
	C117.312561,169.569580 119.303108,170.250427 121.037041,167.869736 
	C116.296066,162.985657 113.161232,156.239182 104.179413,157.280945 
	C98.430695,157.947723 92.530197,157.179764 86.717628,157.463028 
	C82.245796,157.680939 81.039474,155.511841 81.722847,151.725250 
	C82.428055,147.817566 83.308647,143.927246 84.372139,140.101517 
	C86.537514,132.311966 84.348938,127.781044 76.126335,123.971344 
	C74.755905,125.562218 73.804291,127.333992 73.315987,129.534027 
	C72.096359,135.028992 70.721497,140.493225 69.247795,145.926071 
	C68.717751,147.880081 68.482483,149.914993 65.538406,150.481033 
	C54.630295,152.578323 50.559723,163.062836 56.512283,172.407593 
	C58.845001,176.069641 62.461452,176.927994 66.713081,178.487961 
M116.009651,32.567123 
	C114.054512,35.469669 113.622978,38.448093 116.168388,41.155777 
	C117.986755,43.090069 120.101151,44.592617 123.143227,43.784607 
	C126.559868,42.877098 128.637222,40.643627 129.304459,37.391678 
	C129.897980,34.498909 128.114807,32.333149 125.831360,30.782116 
	C122.413605,28.460592 119.286263,29.308754 116.009651,32.567123 
M222.962662,44.177120 
	C224.100662,43.513309 225.341095,42.976704 226.355728,42.159687 
	C228.590683,40.360001 229.723114,37.900280 228.744965,35.155491 
	C227.708572,32.247276 225.624573,29.977695 222.369141,29.521154 
	C219.218430,29.079300 216.973740,30.730183 215.477554,33.398491 
	C212.813049,38.150356 215.307983,42.129341 222.962662,44.177120 
z"/>
<path fill="#000000" opacity="1.000000" stroke="none" 
	d="
M141.100113,115.900040 
	C173.388351,148.107834 205.423157,180.059418 237.258026,211.811615 
	C232.358749,216.881027 228.003159,221.387878 223.664124,225.877579 
	C216.442108,221.231934 107.342224,110.805153 106.000053,106.736694 
	C107.390190,105.176529 109.325638,104.889748 111.285805,104.588066 
	C114.436859,104.103104 117.128784,102.557098 118.351334,99.652420 
	C120.137657,95.408287 122.076431,96.933159 124.225815,99.065849 
	C129.780472,104.577377 135.308197,110.116028 141.100113,115.900040 
z"/>
<path fill="#000000" opacity="1.000000" stroke="none" 
	d="
M237.483047,234.472824 
	C241.620895,230.343994 245.556412,226.506790 249.370438,222.552414 
	C251.590271,220.250885 253.541626,220.338211 255.737457,222.561478 
	C261.939270,228.840790 268.183197,235.079041 274.459229,241.284210 
	C276.694855,243.494568 276.669403,245.467377 274.425781,247.672256 
	C269.437805,252.574066 264.525879,257.553680 259.612030,262.530273 
	C258.137451,264.023682 256.670654,264.761719 254.946182,262.955322 
	C247.620529,255.281677 239.247879,248.582291 233.126892,239.929886 
	C233.801895,237.383224 235.852463,236.319260 237.483047,234.472824 
z"/>
<path fill="#000000" opacity="1.000000" stroke="none" 
	d="
M107.888954,76.653160 
	C108.925453,77.178329 109.618858,77.609383 110.696266,78.279144 
	C107.497322,81.182137 105.767143,84.520920 106.235550,88.766182 
	C106.407448,90.324135 105.381035,91.128860 103.824112,91.352890 
	C101.862793,91.635094 99.919380,92.325813 97.967087,92.330231 
	C93.238541,92.340935 90.490280,94.598824 89.479370,99.098709 
	C89.153130,100.550903 89.244942,102.118050 87.071877,102.202324 
	C85.001442,102.282631 84.782066,100.698822 84.151917,99.391312 
	C80.694839,92.218170 77.282379,85.022240 73.708099,77.907745 
	C72.758659,76.017921 72.586540,74.842720 74.379440,73.225746 
	C83.564629,64.941887 81.068619,66.078888 92.573830,69.859825 
	C97.740387,71.557693 102.565704,74.293961 107.888954,76.653160 
z"/>
<path fill="#000000" opacity="1.000000" stroke="none" 
	d="
M74.902260,244.463593 
	C64.283531,237.878647 62.798492,227.529312 65.704735,220.337738 
	C69.241768,211.585236 77.985725,205.097336 89.210762,206.754074 
	C96.164726,207.780426 106.024246,215.625961 106.386444,225.604309 
	C106.735855,235.230286 100.119057,243.876450 90.608658,246.415298 
	C85.124359,247.879364 80.161987,246.995575 74.902260,244.463593 
M90.389946,233.919235 
	C91.724960,233.092072 92.549263,231.835709 93.135292,230.441925 
	C94.992165,226.025681 92.917274,220.752884 88.535423,218.632339 
	C84.586143,216.721130 79.900047,218.514328 77.796623,222.919312 
	C76.115067,226.440811 76.801636,229.936951 79.285408,232.685989 
	C82.161102,235.868820 85.873909,236.242859 90.389946,233.919235 
z"/>
</svg>